<svg width="110" height="19" viewBox="0 0 110 19" fill="none" xmlns="http://www.w3.org/2000/svg">
<path fill-rule="evenodd" clip-rule="evenodd" d="M0 0.308677H5.6725V13.9442H14.5261V18.3988H0V0.308677ZM28.4014 15.4127H21.9394L21.0513 18.3988H15.2534L22.1532 0.308677H28.3387L35.239 18.3988H29.3032L28.4014 15.4127ZM27.212 11.5009L25.1832 4.99796L23.1667 11.5009H27.212ZM37.13 0.309128H45.5577C47.2192 0.309128 48.5611 0.530707 49.5837 0.97522C50.6064 1.41928 51.4518 2.05695 52.1196 2.88776C52.7877 3.71857 53.2718 4.68522 53.5723 5.7877C53.8727 6.88973 54.0229 8.05766 54.0229 9.29191C54.0229 11.2252 53.7999 12.7244 53.3533 13.7899C52.9064 14.8549 52.2863 15.748 51.494 16.4678C50.7003 17.1876 49.8489 17.6668 48.9385 17.9051C47.695 18.2345 46.568 18.3988 45.5577 18.3988H37.13V0.308677V0.309128ZM42.8025 4.40542V14.2899H44.1929C45.3781 14.2899 46.2217 14.1599 46.7223 13.9009C47.2233 13.6418 47.6154 13.1892 47.8993 12.5434C48.1833 11.8981 48.3252 10.8511 48.3252 9.40293C48.3252 7.48633 48.0078 6.174 47.3735 5.46684C46.7393 4.75923 45.6873 4.40542 44.2181 4.40542H42.8029H42.8025ZM56.0142 12.4139L61.4114 12.0808C61.5287 12.9446 61.7664 13.6026 62.1254 14.0552C62.7098 14.7872 63.5447 15.1536 64.6301 15.1536C65.4398 15.1536 66.0636 14.9663 66.5023 14.5918C66.9406 14.2177 67.1595 13.784 67.1595 13.2903C67.1595 12.8209 66.9507 12.4013 66.5334 12.0312C66.1158 11.6611 65.1476 11.3119 63.628 10.9824C61.1403 10.4314 59.3661 9.69942 58.3064 8.78602C57.2374 7.87308 56.7034 6.70877 56.7034 5.294C56.7034 4.36436 56.9764 3.48616 57.5232 2.65941C58.07 1.83266 58.8926 1.18281 59.9903 0.709867C61.0881 0.236923 62.593 0 64.5046 0C66.8508 0 68.6392 0.43007 69.8707 1.28976C71.1022 2.14946 71.8345 3.51685 72.0686 5.39283L66.7212 5.70106C66.5792 4.88694 66.2806 4.29441 65.8259 3.92436C65.3706 3.5543 64.7428 3.36928 63.9413 3.36928C63.2818 3.36928 62.7849 3.50692 62.451 3.7822C62.1167 4.05793 61.95 4.39324 61.95 4.78811C61.95 5.07603 62.0874 5.33506 62.3631 5.56522C62.6306 5.8044 63.2653 6.02598 64.2669 6.23176C66.7464 6.75841 68.5224 7.29093 69.595 7.82976C70.6681 8.36859 71.4484 9.03694 71.9371 9.83481C72.4253 10.6331 72.6699 11.5258 72.6699 12.5127C72.6699 13.6725 72.3438 14.7421 71.693 15.7213C71.0418 16.7002 70.1313 17.4425 68.963 17.9484C67.7938 18.4543 66.3205 18.7075 64.5422 18.7075C61.4201 18.7075 59.2576 18.1149 58.0554 16.9303C56.8532 15.7457 56.1731 14.2407 56.0142 12.4139ZM75.4997 0.308677H84.9294C86.983 0.308677 88.5214 0.789743 89.544 1.75278C90.5667 2.71492 91.0782 4.08456 91.0782 5.86171C91.0782 7.68806 90.5209 9.11546 89.4066 10.1435C88.2919 11.172 86.591 11.686 84.3034 11.686H81.1974V18.3988H75.4997V0.308677ZM81.1974 8.0211H82.5878C83.6815 8.0211 84.4495 7.83382 84.8914 7.45971C85.3343 7.08514 85.5555 6.60588 85.5555 6.02192C85.5555 5.4542 85.3632 4.97314 84.9794 4.57826C84.5956 4.18339 83.8734 3.98573 82.8131 3.98573H81.1974V8.0211ZM103.162 15.4127H96.7008L95.8119 18.3988H90.0139L96.9138 0.308677H103.1L110 18.3988H104.065L103.162 15.4127ZM101.973 11.5009L99.9442 4.99796L97.9282 11.5009H101.973Z" fill="#CCCCCC"/>
</svg>
